<?xml version="1.0" encoding="UTF-8"?>
<!DOCTYPE svg PUBLIC "-//W3C//DTD SVG 1.1//EN" "http://www.w3.org/Graphics/SVG/1.1/DTD/svg11.dtd">
<!-- Creator: CorelDRAW -->
<svg xmlns="http://www.w3.org/2000/svg" xml:space="preserve" width="2048px" height="2048px" style="shape-rendering:geometricPrecision; text-rendering:geometricPrecision; image-rendering:optimizeQuality; fill-rule:evenodd; clip-rule:evenodd"
viewBox="0 0 2048 2048"
 xmlns:xlink="http://www.w3.org/1999/xlink">
 <defs>
  <style type="text/css">
   <![CDATA[
    .fil2 {fill:none}
    .fil1 {fill:#F45A52}
    .fil0 {fill:#333333;fill-rule:nonzero}
   ]]>
  </style>
 </defs>
 <g id="Layer_x0020_1">
  <metadata id="CorelCorpID_0Corel-Layer"/>
  <g id="_488782632">
   <path id="_488782440" class="fil0" d="M1024.5 595.42l-0.0425197 0.0011811 -0.432284 0.00590552 -0.305906 -0.0011811 -0.168898 -0.00236221 -0.512599 -0.0129921 -0.00708662 0c-2.83583,-0.102756 -5.70119,-0.715749 -8.47087,-1.88504 -6.64843,-2.81221 -11.3681,-8.27245 -13.4551,-14.6315 -41.7012,-99.8517 -110.959,-178.608 -191.927,-225.624 -79.226,-46.0052 -169.634,-61.4528 -255.91,-36.0969 -32.7177,9.61536 -64.565,24.1736 -93.5764,42.913 -28.0477,18.1181 -53.2961,40.0488 -73.9335,65.08 -187.647,227.606 1.21772,447.215 235.443,719.567 141.724,164.792 299.432,348.193 404.285,565.667 104.229,-217.68 261.49,-401.586 402.812,-566.834 233.427,-272.946 421.647,-493.034 233.368,-720.123 -20.7898,-25.0748 -46.0996,-46.9583 -74.1284,-64.9524 -29.0776,-18.6685 -60.9367,-33.1335 -93.6083,-42.6366 -86.3044,-25.1044 -176.668,-9.38859 -255.802,36.8563 -81.3142,47.5193 -150.69,127.068 -192.037,227.796l0.0732284 0.0295276c-3.73465,9.09922 -12.4205,14.6717 -21.6638,14.8843zm-191.322 -283.588c76.9111,44.6611 144.156,114.865 190.676,203.189 46.2733,-88.4835 113.315,-158.884 190.087,-203.749 90.0922,-52.6489 193.655,-70.343 293.302,-41.3563 37.2402,10.8319 73.3749,27.2044 106.171,48.2611 32.1437,20.6374 61.2284,45.802 85.1906,74.7036 213.97,258.077 14.0315,491.868 -233.93,781.81 -149.149,174.402 -316.336,369.9 -416.72,602.024 -2.24055,5.74961 -6.68386,10.6394 -12.789,13.2945 -12.1547,5.28662 -26.2949,-0.281103 -31.5815,-12.4358l0.0637796 -0.0271654c-100.951,-232.076 -268.958,-427.433 -418.82,-601.688 -248.716,-289.2 -449.263,-522.396 -236.006,-781.067 23.9634,-29.067 52.9796,-54.3355 84.9957,-75.0178 32.752,-21.1559 68.8134,-37.6217 105.952,-48.5374 99.5245,-29.25 203.136,-11.824 293.41,40.5969z"/>
   <path id="_488782920" class="fil0" d="M1081.94 1425.43c-7.50709,10.8732 -4.77874,25.774 6.09449,33.2811 10.8732,7.50709 25.774,4.77874 33.2811,-6.09449 85.2308,-123.195 183.351,-238.221 282.376,-354.305l19.6902 -23.0894 -18.1878 -15.5622 18.261 15.5728c0.54567,-0.640158 1.05,-1.30039 1.51772,-1.97835 8.35512,-10.148 15.9284,-19.2295 23.954,-28.8544 48.2788,-57.9012 111.959,-134.275 161.786,-213.306 7.04056,-11.1827 3.68268,-25.9595 -7.50001,-33 -11.1827,-7.04056 -25.9595,-3.68268 -33,7.50001 -48.3638,76.7103 -110.744,151.524 -158.038,208.244 -9.07087,10.8791 -17.6244,21.137 -24.1441,29.0469 -0.375591,0.386221 -0.742914,0.786615 -1.09843,1.20236l0.0472441 0.0401575 -19.6642 23.0599c-99.7572,116.943 -198.604,232.82 -285.376,358.243z"/>
   <path id="_488783040" class="fil0" d="M915.007 622.086c7.3878,17.5288 30.8433,20.0764 41.8607,4.55906 4.67953,-6.84922 5.64685,-15.2162 2.49213,-22.9134l-0.714567 -1.71732 -0.726379 -1.72559 -0.732284 -1.71614 -0.742914 -1.72205 -0.748819 -1.71496 -0.755906 -1.71378 -0.768898 -1.72205 -0.772442 -1.71024 -0.78189 -1.71024 -0.788977 -1.71142 -0.797245 -1.70669 -0.805512 -1.71024 -0.81378 -1.70669 -0.822048 -1.70669 -0.831497 -1.70669 -0.83504 -1.69843 -0.846851 -1.70197 -0.8563 -1.70551 -0.861024 -1.69606 -0.865749 -1.68898 -0.876379 -1.6937 -0.885827 -1.6937 -0.892914 -1.68898 -0.901182 -1.69016 -0.905906 -1.68071 -0.914174 -1.68425 -0.679134 -1.23543c-5.09646,-9.30237 -15.5551,-14.1083 -25.9347,-11.9988 -15.7984,3.36733 -23.9043,20.8099 -16.1882,35.0162l0.679134 1.23543 0.822048 1.51181 0.818505 1.51772 0.806694 1.51299 0.800788 1.51654 0.791339 1.51417 0.786615 1.5189 0.783071 1.52835 0.773623 1.52126 0.761812 1.51654 0.757087 1.5248 0.752363 1.52835 0.741733 1.52244 0.734646 1.52717 0.728741 1.52717 0.720473 1.52835 0.714567 1.53189 0.7063 1.52953 0.699213 1.53307 0.692127 1.53307 0.681497 1.52362 0.675591 1.53425 0.670867 1.53307 0.657875 1.52835 0.654331 1.53425 0.643701 1.52717 0.638977 1.53543zm-558.897 -5.05512c-0.0826772,10.9063 6.95552,20.3516 17.4319,23.3823 15.2516,4.28622 30.3213,-6.97441 30.5634,-22.7988l0.00944883 -0.581103 0.00826772 -0.569292 0.0129921 -0.568111 0.0129921 -0.56693 0.0165354 -0.565748 0.0177165 -0.587008 0.0188977 -0.543308 0.022441 -0.563386 0.0259843 -0.604725 0.0236221 -0.563386 0.0271654 -0.537402 0.0307087 -0.583465 0.0307087 -0.558662 0.0330709 -0.5563 0.0366142 -0.579922 0.0366142 -0.5563 0.0377953 -0.555119 0.0413386 -0.5563 0.0437008 -0.572835 0.0437008 -0.553937 0.0472441 -0.551575 0.0496063 -0.574016 0.0496063 -0.549213 0.0543308 -0.570473 0.0519685 -0.549213 0.056693 -0.548032 0.0590552 -0.570473 0.0578741 -0.544489 0.0614174 -0.54567 0.0649607 -0.56693 0.0661418 -0.563386 0.0661418 -0.543308 0.0673229 -0.54567 0.011811 -0.0826772c1.93347,-14.7827 -9.91064,-27.6768 -24.7949,-27.0957 -11.6492,0.458268 -21.2882,9.32127 -22.7988,20.8689l-0.0354331 0.269292 -0.090945 0.720473 -0.0874016 0.722835 -0.0826772 0.705119 -0.0814961 0.703938 -0.080315 0.725197 -0.0791339 0.728741 -0.0732284 0.705119 -0.0732284 0.72756 -0.0708662 0.728741 -0.0661418 0.707481 -0.0661418 0.731103 -0.0614174 0.708662 -0.0614174 0.731103 -0.0578741 0.731103 -0.0555119 0.712205 -0.0531496 0.733465 -0.0519685 0.732284 -0.0484252 0.735827 -0.0437008 0.712205 -0.0448819 0.735827 -0.0401575 0.73819 -0.0377953 0.713386 -0.0366142 0.759449 -0.0330709 0.73819 -0.0283465 0.694489 -0.0295276 0.740552 -0.0259843 0.760631 -0.022441 0.719292 -0.0212599 0.740552 -0.0177165 0.741733 -0.0153543 0.742914 -0.0129921 0.741733 -0.00944883 0.732284zm69.4158 -164.45c-8.26654,9.7252 -7.6004,24.0248 1.57795,32.9067 9.98977,9.56457 25.8484,8.81457 34.8685,-1.67362 9.33898,-10.9287 19.9075,-20.9339 31.2248,-29.7933 15.9839,-12.5693 10.1539,-38.0268 -9.73347,-42.3721 -7.04646,-1.46811 -14.139,0.124016 -19.8295,4.55552 -13.8862,10.9488 -26.615,22.9252 -38.1083,36.3768zm180.443 -97.6666c-19.187,2.6563 -27.5386,25.5414 -14.5559,39.9485 5.4,5.85591 13.0311,8.66103 20.9386,7.62638l0.0472441 -0.00590552 1.67362 -0.218504 1.65473 -0.20315 1.66063 -0.187795 1.66536 -0.177165 1.65354 -0.161811 1.65118 -0.147638 1.64882 -0.133465 1.65236 -0.121654 1.65 -0.10748 1.63937 -0.0944883 1.6441 -0.080315 1.64173 -0.0673229 1.63701 -0.0543308 1.64291 -0.0413386 1.63347 -0.0283465 1.62874 -0.0141732 1.63465 -0.00236221 1.6311 0.0106299 1.62874 0.0236221 1.61811 0.0354331 1.62165 0.0496063 1.61929 0.0614174 1.61811 0.0755906 1.62165 0.0862205 1.60984 0.0992127 1.61693 0.113386 0.109843 0.00826772c19.3937,1.47992 32.3729,-19.1658 22.6524,-36.0579 -4.08307,-6.80552 -10.8272,-11.1177 -18.7618,-11.7839l-0.49252 -0.0389764 -1.98071 -0.137008 -1.99016 -0.122835 -1.98543 -0.10748 -1.99606 -0.0921261 -1.99725 -0.0755906 -1.99961 -0.0614174 -2.01024 -0.0448819 -2.00433 -0.0283465 -2.00433 -0.0129921 -2.00788 0.00236221 -2.01851 0.0188977 -2.01851 0.0354331 -2.01378 0.0507874 -2.02205 0.0661418 -2.02441 0.0838583 -2.02677 0.0992127 -2.03386 0.115748 -2.03032 0.133465 -2.03032 0.147638 -2.03858 0.166536 -2.04095 0.183071 -2.04331 0.199606 -2.03386 0.214961 -2.04567 0.232677 -2.05394 0.250394 -2.0374 0.265748 -0.0472441 0.00590552zm198.13 52.3926c-11.5441,-8.01615 -27.4252,-4.47874 -34.4811,7.67953 -6.25512,10.7776 -3.17126,24.6106 7.06536,31.7197l0.967324 0.669686 1.39488 0.975591 1.3878 0.982678 1.3878 0.992127 1.37244 0.993308 1.37717 1.00866 1.37008 1.01221 1.36772 1.02402 1.37008 1.03583 1.35945 1.03819 1.35591 1.04646 1.34764 1.05236 1.34764 1.06299 1.34528 1.07244 1.3441 1.08071 1.33347 1.08425 1.3252 1.08898 1.32402 1.10079 1.32756 1.11378 1.32402 1.11969 1.30748 1.11732 1.30512 1.12795 1.30984 1.14213 1.30039 1.14567 1.29567 1.15276 1.2874 1.15512 0.551575 0.500788c14.3303,13.0016 37.2544,4.66181 39.952,-14.5429 0.976772,-7.94174 -1.70906,-15.5114 -7.6252,-20.9398l-0.721654 -0.654331 -1.46457 -1.31575 -1.46811 -1.30394 -1.47284 -1.29685 -1.4752 -1.28622 -1.48701 -1.28622 -1.49882 -1.28032 -1.49173 -1.26378 -1.49764 -1.25551 -1.51063 -1.25433 -1.52126 -1.24961 -1.52244 -1.2378 -1.52362 -1.22717 -1.52953 -1.2189 -1.53898 -1.21417 -1.54843 -1.20827 -1.55197 -1.19764 -1.55551 -1.18937 -1.55669 -1.1752 -1.56614 -1.17284 -1.57559 -1.16575 -1.57795 -1.15512 -1.59213 -1.15158 -1.58858 -1.13622 -1.59567 -1.12913 -1.59803 -1.11732 -0.967324 -0.669686z"/>
  </g>
  <path class="fil1" d="M956.867 626.645c-11.0173,15.5173 -34.4729,12.9697 -41.8607,-4.55906l-0.638977 -1.53543 -0.643701 -1.52717 -0.654331 -1.53425 -0.657875 -1.52835 -0.670867 -1.53307 -0.675591 -1.53425 -0.681497 -1.52362 -0.692127 -1.53307 -0.699213 -1.53307 -0.7063 -1.52953 -0.714567 -1.53189 -0.720473 -1.52835 -0.728741 -1.52717 -0.734646 -1.52717 -0.741733 -1.52244 -0.752363 -1.52835 -0.757087 -1.5248 -0.761812 -1.51654 -0.773623 -1.52126 -0.783071 -1.52835 -0.786615 -1.5189 -0.791339 -1.51417 -0.800788 -1.51654 -0.806694 -1.51299 -0.818505 -1.51772 -0.822048 -1.51181 -0.679134 -1.23543c-7.71615,-14.2063 0.389764,-31.6488 16.1882,-35.0162 10.3795,-2.10945 20.8382,2.69646 25.9347,11.9988l0.679134 1.23543 0.914174 1.68425 0.905906 1.68071 0.901182 1.69016 0.892914 1.68898 0.885827 1.6937 0.876379 1.6937 0.865749 1.68898 0.861024 1.69606 0.8563 1.70551 0.846851 1.70197 0.83504 1.69843 0.831497 1.70669 0.822048 1.70669 0.81378 1.70669 0.805512 1.71024 0.797245 1.70669 0.788977 1.71142 0.78189 1.71024 0.772442 1.71024 0.768898 1.72205 0.755906 1.71378 0.748819 1.71496 0.742914 1.72205 0.732284 1.71614 0.726379 1.72559 0.714567 1.71732c3.15473,7.69725 2.1874,16.0642 -2.49213,22.9134zm-552.762 -9.03072c-0.242126,15.8244 -15.3118,27.0851 -30.5634,22.7988 -10.4764,-3.03071 -17.5146,-12.476 -17.4319,-23.3823l0.00944883 -0.732284 0.0129921 -0.741733 0.0153543 -0.742914 0.0177165 -0.741733 0.0212599 -0.740552 0.022441 -0.719292 0.0259843 -0.760631 0.0295276 -0.740552 0.0283465 -0.694489 0.0330709 -0.73819 0.0366142 -0.759449 0.0377953 -0.713386 0.0401575 -0.73819 0.0448819 -0.735827 0.0437008 -0.712205 0.0484252 -0.735827 0.0519685 -0.732284 0.0531496 -0.733465 0.0555119 -0.712205 0.0578741 -0.731103 0.0614174 -0.731103 0.0614174 -0.708662 0.0661418 -0.731103 0.0661418 -0.707481 0.0708662 -0.728741 0.0732284 -0.72756 0.0732284 -0.705119 0.0791339 -0.728741 0.080315 -0.725197 0.0814961 -0.703938 0.0826772 -0.705119 0.0874016 -0.722835 0.090945 -0.720473 0.0354331 -0.269292c1.51063,-11.5476 11.1496,-20.4106 22.7988,-20.8689 14.8843,-0.581103 26.7284,12.313 24.7949,27.0957l-0.011811 0.0826772 -0.0673229 0.54567 -0.0661418 0.543308 -0.0661418 0.563386 -0.0649607 0.56693 -0.0614174 0.54567 -0.0578741 0.544489 -0.0590552 0.570473 -0.056693 0.548032 -0.0519685 0.549213 -0.0543308 0.570473 -0.0496063 0.549213 -0.0496063 0.574016 -0.0472441 0.551575 -0.0437008 0.553937 -0.0437008 0.572835 -0.0413386 0.5563 -0.0377953 0.555119 -0.0366142 0.5563 -0.0366142 0.579922 -0.0330709 0.5563 -0.0307087 0.558662 -0.0307087 0.583465 -0.0271654 0.537402 -0.0236221 0.563386 -0.0259843 0.604725 -0.022441 0.563386 -0.0188977 0.543308 -0.0177165 0.587008 -0.0165354 0.565748 -0.0129921 0.56693 -0.0129921 0.568111 -0.00826772 0.569292 -0.00944883 0.581103zm57.867 -133.8c-9.02009,10.4882 -24.8788,11.2382 -34.8685,1.67362 -9.17835,-8.8819 -9.8445,-23.1815 -1.57795,-32.9067 11.4933,-13.4516 24.2221,-25.428 38.1083,-36.3768 5.69056,-4.4315 12.7831,-6.02363 19.8295,-4.55552 19.8874,4.34528 25.7173,29.8028 9.73347,42.3721 -11.3173,8.85946 -21.8858,18.8646 -31.2248,29.7933zm165.337 -82.7894l-1.65 0.10748 -1.65236 0.121654 -1.64882 0.133465 -1.65118 0.147638 -1.65354 0.161811 -1.66536 0.177165 -1.66063 0.187795 -1.65473 0.20315 -1.67362 0.218504 -0.0472441 0.00590552c-7.90749,1.03465 -15.5386,-1.77047 -20.9386,-7.62638 -12.9827,-14.4071 -4.63111,-37.2922 14.5559,-39.9485l0.0472441 -0.00590552 2.0374 -0.265748 2.05394 -0.250394 2.04567 -0.232677 2.03386 -0.214961 2.04331 -0.199606 2.04095 -0.183071 2.03858 -0.166536 2.03032 -0.147638 2.03032 -0.133465 2.03386 -0.115748 2.02677 -0.0992127 2.02441 -0.0838583 2.02205 -0.0661418 2.01378 -0.0507874 2.01851 -0.0354331 2.01851 -0.0188977 2.00788 -0.00236221 2.00433 0.0129921 2.00433 0.0283465 2.01024 0.0448819 1.99961 0.0614174 1.99725 0.0755906 1.99606 0.0921261 1.98543 0.10748 1.99016 0.122835 1.98071 0.137008 0.49252 0.0389764c7.93465,0.666142 14.6788,4.97835 18.7618,11.7839 9.72048,16.8921 -3.25866,37.5378 -22.6524,36.0579l-0.109843 -0.00826772 -1.61693 -0.113386 -1.60984 -0.0992127 -1.62165 -0.0862205 -1.61811 -0.0755906 -1.61929 -0.0614174 -1.62165 -0.0496063 -1.61811 -0.0354331 -1.62874 -0.0236221 -1.6311 -0.0106299 -1.63465 0.00236221 -1.62874 0.0141732 -1.63347 0.0283465 -1.64291 0.0413386 -1.63701 0.0543308 -1.64173 0.0673229 -1.6441 0.080315 -1.63937 0.0944883zm224.413 59.0351c-2.69764,19.2047 -25.6217,27.5445 -39.952,14.5429l-0.551575 -0.500788 -1.2874 -1.15512 -1.29567 -1.15276 -1.30039 -1.14567 -1.30984 -1.14213 -1.30512 -1.12795 -1.30748 -1.11732 -1.32402 -1.11969 -1.32756 -1.11378 -1.32402 -1.10079 -1.3252 -1.08898 -1.33347 -1.08425 -1.3441 -1.08071 -1.34528 -1.07244 -1.34764 -1.06299 -1.34764 -1.05236 -1.35591 -1.04646 -1.35945 -1.03819 -1.37008 -1.03583 -1.36772 -1.02402 -1.37008 -1.01221 -1.37717 -1.00866 -1.37244 -0.993308 -1.3878 -0.992127 -1.3878 -0.982678 -1.39488 -0.975591 -0.967324 -0.669686c-10.2366,-7.10906 -13.3205,-20.9421 -7.06536,-31.7197 7.05591,-12.1583 22.937,-15.6957 34.4811,-7.67953l0.967324 0.669686 1.59803 1.11732 1.59567 1.12913 1.58858 1.13622 1.59213 1.15158 1.57795 1.15512 1.57559 1.16575 1.56614 1.17284 1.55669 1.1752 1.55551 1.18937 1.55197 1.19764 1.54843 1.20827 1.53898 1.21417 1.52953 1.2189 1.52362 1.22717 1.52244 1.2378 1.52126 1.24961 1.51063 1.25433 1.49764 1.25551 1.49173 1.26378 1.49882 1.28032 1.48701 1.28622 1.4752 1.28622 1.47284 1.29685 1.46811 1.30394 1.46457 1.31575 0.721654 0.654331c5.91615,5.42835 8.60198,12.998 7.6252,20.9398zm171.314 135.351l0 0zm-8.47796 -1.88504c-6.64843,-2.81221 -11.3681,-8.27245 -13.4551,-14.6315 -41.7012,-99.8517 -110.959,-178.608 -191.927,-225.624 -79.226,-46.0052 -169.634,-61.4528 -255.91,-36.0969 -32.7177,9.61536 -64.565,24.1736 -93.5764,42.913 -28.0477,18.1181 -53.2961,40.0488 -73.9335,65.08 -187.647,227.606 1.21772,447.215 235.443,719.567 141.724,164.792 299.432,348.193 404.285,565.667 104.229,-217.68 261.49,-401.586 402.812,-566.834 233.427,-272.946 421.647,-493.034 233.368,-720.123 -20.7898,-25.0748 -46.0996,-46.9583 -74.1284,-64.9524 -29.0776,-18.6685 -60.9367,-33.1335 -93.6083,-42.6366 -86.3044,-25.1044 -176.668,-9.38859 -255.802,36.8563 -81.3142,47.5193 -150.69,127.068 -192.037,227.796l0.0732284 0.0295276c-3.73465,9.09922 -12.4205,14.6717 -21.6638,14.8843l-0.0425197 0.0011811 -0.432284 0.00590552 -0.305906 -0.0011811 -0.168898 -0.00236221 -0.519685 -0.0129921c-2.83583,-0.102756 -5.70119,-0.715749 -8.47087,-1.88504z"/>
 </g>
 <rect class="fil2" width="2048" height="2048"/>
</svg>
